<?xml version="1.0" standalone="no"?><!DOCTYPE svg PUBLIC "-//W3C//DTD SVG 1.1//EN" "http://www.w3.org/Graphics/SVG/1.1/DTD/svg11.dtd"><svg t="1539739004134" class="icon" style="" viewBox="0 0 1024 1024" version="1.1" xmlns="http://www.w3.org/2000/svg" p-id="8449" xmlns:xlink="http://www.w3.org/1999/xlink" width="200" height="200"><defs><style type="text/css"></style></defs><path d="M308.511984 714.164451c47.830075 47.638115 62.227088 125.989857 14.429006 173.659965-47.830075 47.638115-191.992162 100.715102-239.822237 53.076987-47.798082-47.638115 5.502858-191.288308 53.30094-238.926423 47.830075-47.638115 124.294209-35.480638 172.092291 12.189471z" fill="#EFC75E" p-id="8450"></path><path d="M750.180338 608.234431c72.017056 149.313018-103.722478 496.856902-184.985616 398.50931-32.953162-39.863728-30.777614-103.466531-116.807762-185.369536-0.127973 0.511894 31.321501 5.566845 68.145859-27.770238 84.974368-65.458417 233.647518-184.825649 233.647519-185.369536zM447.555132 273.839818C286.148624 200.702994-87.693804 375.290767 18.84409 457.417726c43.191038 33.305089 111.720818 31.481468 200.502396 118.343444-0.543887 0.127973-6.142725-31.481468 29.625852-68.305827 70.033468-85.038355 197.97492-233.615525 198.582794-233.615525z" fill="#E2574C" p-id="8451"></path><path d="M376.465883 257.267257l-6.974552-0.351927a15539.431568 15539.431568 0 0 0-174.715747 217.362897c-21.627512 23.483127-27.482297 44.822699-28.730038 57.428084 10.333856 7.102526 20.987645 15.292827 31.993361 24.698875 2.687442-12.733358 9.757975-30.489673 27.450304-49.717684 67.346026-86.190116 190.296513-236.878848 190.872394-236.846854a171.61239 171.61239 0 0 0-39.895722-12.573391zM751.172132 610.60194c-21.051632 17.724322-154.463949 127.109625-233.743498 189.528673-26.202563 24.250968-49.461737 28.794025-61.075327 29.241932 11.389637 11.453623 21.243592 22.55532 29.625852 33.273096 10.429836 0.159967 35.544624-3.135349 63.890743-29.337912a14918.760357 14918.760357 0 0 0 214.835422-173.915913 172.892125 172.892125 0 0 0-13.533192-48.789876z" fill="#CF5349" p-id="8452"></path><path d="M195.319471 673.180955c6.654619 29.817813 27.098377 65.362437 58.931772 97.131845 31.673428 31.609441 67.090079 51.957219 96.875898 58.739812 5.054951-40.055688-11.51761-83.918587-42.615157-114.888161-30.93758-30.8416-73.808685-46.454361-113.192513-40.983496z" fill="#D7B354" p-id="8453"></path><path d="M1018.348693 5.223556c24.059008 22.74728-11.357643 360.469203-242.189746 589.765624-142.914345 141.986538-237.710675 196.951133-260.393968 216.62705-62.738982 28.442098-104.362345 43.734925-228.688547-79.823437-124.038262-123.238428-100.171214-157.407338-72.656924-216.43509 20.411765-22.907247 76.944034-118.087497 219.890373-260.106028C665.046003 25.987248 993.169917-17.10781 1018.348693 5.223556z" fill="#EBEBEB" p-id="8454"></path><path d="M729.800566 293.259789a127.845472 127.845472 0 0 1 0 180.538538 127.301585 127.301585 0 0 1-180.218604 0 127.845472 127.845472 0 0 1 0-180.538538 127.237598 127.237598 0 0 1 180.218604 0z" fill="#324D5B" p-id="8455"></path><path d="M685.169827 338.498402a63.538816 63.538816 0 0 1 0 90.253272 64.562603 64.562603 0 0 1-90.861146 0 63.602802 63.602802 0 0 1 0-90.253272 64.562603 64.562603 0 0 1 90.861146 0z" fill="#CCD0D2" p-id="8456"></path></svg>